<?xml version="1.0" standalone="no"?>
<!DOCTYPE svg PUBLIC "-//W3C//DTD SVG 20010904//EN"
 "http://www.w3.org/TR/2001/REC-SVG-20010904/DTD/svg10.dtd">
<svg version="1.0" xmlns="http://www.w3.org/2000/svg"
 width="700.000000pt" height="700.000000pt" viewBox="0 0 700.000000 700.000000"
 preserveAspectRatio="xMidYMid meet">
<metadata>
Created by potrace 1.14, written by Peter Selinger 2001-2017
</metadata>
<g transform="translate(0.000000,700.000000) scale(0.100000,-0.100000)"
fill="#000000" stroke="none">
<path d="M5138 5735 c-2 -1 -32 -6 -68 -9 -471 -49 -824 -230 -1051 -541 -53
-73 -125 -214 -154 -300 -50 -151 -57 -208 -61 -505 -3 -324 -13 -748 -18
-800 -2 -19 -7 -78 -11 -130 -10 -156 -26 -294 -45 -410 -5 -30 -12 -71 -15
-90 -73 -466 -223 -768 -423 -857 -71 -31 -136 -28 -213 10 -149 72 -246 254
-303 567 -28 156 -34 201 -51 395 -13 159 -16 215 -21 530 -3 182 -7 335 -9
342 -3 9 -101 11 -402 10 l-398 -2 -2 -130 c-6 -441 -38 -791 -95 -1035 -5
-25 -12 -57 -15 -73 -9 -54 -74 -240 -111 -320 -94 -200 -201 -300 -335 -314
-189 -19 -382 248 -462 642 -9 44 -18 91 -20 105 -1 14 -6 45 -9 70 -27 188
-31 347 -31 1323 0 852 -2 967 -15 968 -60 4 -758 6 -771 3 -19 -5 -18 57 -18
-1109 0 -905 2 -992 34 -1250 16 -127 22 -161 61 -355 14 -69 61 -217 101
-318 159 -399 439 -702 758 -820 119 -44 238 -62 385 -58 142 4 231 22 361 71
68 26 203 101 261 145 62 47 180 165 226 225 25 33 49 64 53 68 4 5 21 -11 37
-36 45 -65 177 -196 256 -256 97 -72 272 -156 391 -188 83 -22 126 -27 250
-29 132 -2 161 0 245 22 230 58 392 154 567 333 232 237 381 555 476 1016 14
66 28 138 31 160 4 22 8 47 11 55 2 8 6 31 9 50 12 88 26 200 32 255 3 33 7
74 9 90 2 17 6 71 10 120 3 50 8 111 10 136 9 104 18 415 19 729 3 368 5 387
67 476 75 109 262 193 474 211 144 13 404 6 456 -11 8 -3 30 -7 50 -10 61 -9
202 -60 270 -98 117 -66 210 -181 226 -281 l6 -39 61 7 c34 3 76 8 94 11 17 2
47 6 65 8 17 3 73 10 122 16 50 6 101 13 115 15 33 5 93 13 155 20 82 10 179
26 183 30 8 7 -29 167 -55 238 -81 229 -230 428 -433 579 -72 54 -96 69 -205
128 -124 67 -285 119 -506 165 -9 2 -40 6 -70 10 -30 4 -67 9 -84 12 -34 5
-452 13 -457 8z"/>
<path d="M4720 4102 c0 -4 -3 -99 -5 -212 -2 -113 -7 -243 -10 -290 -9 -144
-17 -253 -20 -292 l-4 -37 56 -16 c51 -15 355 -87 413 -98 115 -23 394 -95
494 -128 383 -129 565 -308 542 -532 -9 -93 -40 -149 -121 -225 -126 -117
-290 -180 -520 -199 -145 -12 -411 -6 -530 12 -30 5 -88 13 -135 20 -89 13
-243 48 -330 75 -36 11 -68 20 -71 20 -3 0 -23 -42 -44 -92 -88 -215 -205
-403 -341 -547 l-43 -46 24 -13 c63 -33 223 -87 361 -122 143 -37 202 -49 339
-70 33 -5 76 -12 95 -15 137 -22 329 -33 525 -30 121 2 229 6 241 8 11 3 45 8
76 11 30 3 79 11 109 17 30 6 65 13 79 15 55 11 190 53 265 83 241 97 458 261
607 462 99 133 159 266 194 434 19 93 22 133 19 255 -2 80 -6 156 -8 170 -87
450 -404 805 -892 1000 -44 18 -89 36 -100 41 -58 25 -316 100 -425 124 -8 2
-62 14 -120 28 -58 14 -168 39 -245 56 -175 40 -342 86 -417 117 -32 12 -58
20 -58 16z"/>
</g>
</svg>
