<?xml version="1.0" encoding="utf-8"?>
<!-- Generator: Adobe Illustrator 24.1.2, SVG Export Plug-In . SVG Version: 6.00 Build 0)  -->
<svg version="1.1" id="Layer_1" xmlns="http://www.w3.org/2000/svg" xmlns:xlink="http://www.w3.org/1999/xlink" x="0px" y="0px"
	 viewBox="0 0 128 128" style="enable-background:new 0 0 128 128;" xml:space="preserve">
<style type="text/css">
	.st0{fill:#E13131;}
	.st1{fill:#FDD21B;}
	.st2{fill:#4AAD4B;}
	.st3{fill:none;}
	.st4{fill:#FFFFFF;}
	.st5{fill:#1B8CCD;}
</style>
<path class="st0" d="M116.3,27.1H64c-20.4,0-36.9,16.5-36.9,36.9c0,6.3,1.6,12.3,4.4,17.5L5.9,37.1C16.1,15.2,38.3,0,64,0
	C85.6,0,104.7,10.7,116.3,27.1z"/>
<path class="st1" d="M128,64c0,33.4-25.6,60.8-58.2,63.7l25.7-44.5l0.1-0.1c3.4-5.6,5.3-12.1,5.3-19.1c0-20.4-16.5-36.9-36.9-36.9
	h52.3C123.7,37.5,128,50.3,128,64z"/>
<path class="st2" d="M95.5,83.3l-25.7,44.5c-1.9,0.2-3.8,0.3-5.8,0.3C28.7,128,0,99.3,0,64c0-9.6,2.1-18.7,5.9-26.9l25.6,44.4l0,0.1
	C37.8,93.1,50,100.9,64,100.9C77.3,100.9,89,93.8,95.5,83.3z"/>
<path class="st3" d="M100.9,64c0,7-2,13.5-5.3,19.1l-0.1,0.1C89,93.8,77.3,100.9,64,100.9c-14,0-26.2-7.8-32.4-19.3l0-0.1
	c-2.8-5.2-4.4-11.2-4.4-17.5c0-20.4,16.5-36.9,36.9-36.9S100.9,43.6,100.9,64z"/>
<line class="st3" x1="32.1" y1="82.4" x2="31.6" y2="81.6"/>
<line class="st3" x1="95.9" y1="82.4" x2="95.5" y2="83.1"/>
<circle class="st4" cx="64" cy="64" r="51"/>
<circle class="st5" cx="64" cy="64" r="47.7"/>
<path id="path4140" class="st4" d="M82.8,83.3c-14.6,0-18.8-7-21.1-13.8l-2.5-8.3c-2-6-4.3-11.3-12.3-11.3
	c-5.3,0-10.8,3.8-10.8,14.6c0,8,4.3,13.6,10.6,13.6c5,0,8.8-2.8,10.3-4.3l2,5.8c-1.3,1-5.5,3.8-12.8,3.8c-11.3,0-17.3-6.5-17.3-18.6
	c0-12.8,6.3-19.8,17.8-19.8c10.8,0,15.8,3.8,19.3,14.1l2.8,8.3c1.8,5,4.8,10.8,14.3,10.8c4,0,9.3-0.5,9.3-5c0-3-2-4.8-6-5.8L80.8,66
	c-6.3-1.5-9-4.5-9-10c0-9.5,8.8-11.1,13.8-11.1c8.3,0,12.6,3,13.3,9l-6.8,0.8c-0.5-3.3-2.8-5-7-5c-4,0-6.5,2-6.5,5.3
	c0,3,1.5,4.5,5.3,5.5l5.3,1.3c7,1.8,10.3,5,10.3,11.1C99.2,79.6,93.6,83.3,82.8,83.3z"/>
</svg>
